PathFileType	4	(X/Y/Z)	C:/Users/beibeiliu/ov580/test_trc/User3\sequence.3_training_dense_left.trc
DataRate	CameraRate	NumFrames	NumMarkers	Units	OrigDataRate	OrigDataStartFrame	OrigNumFrames
120	120	21	19	mm	120	1	78
Frame#	Time	ThumbCMC			ThumbMCP			ThumbIP			ThumbTip			IndexMCP			IndexPIP			IndexTip			MiddleMCP			MiddlePIP			MiddleTip			RingMCP			RingPIP			RingTip			PinkyMCP			PinkyPIP			PinkyTip			BackHand1			BackHand2			BackHand3	
		X0	Y0	Z0	X1	Y1	Z1	X2	Y2	Z2	X3	Y3	Z3	X4	Y4	Z4	X5	Y5	Z5	X6	Y6	Z6	X7	Y7	Z7	X8	Y8	Z8	X9	Y9	Z9	X10	Y10	Z10	X11	Y11	Z11	X12	Y12	Z12	X13	Y13	Z13	X14	Y14	Z14	X15	Y15	Z15	X16	Y16	Z16	X17	Y17	Z17	X18	Y18	Z18	
0	0	-128.31	25.7759	-1.2518	-111.087	19.9502	-22.8672	-91.2243	16.5493	-45.9262	-77.8599	11.9403	-65.4929	-153.287	42.9828	-76.3073	-145.963	40.5517	-100.493	-141.069	41.6586	-129.824	-176.987	48.0046	-79.6061	-178.172	47.8384	-107.383	-180.159	44.289	-138.712	-198.702	43.3858	-71.035	-204.682	44.9094	-90.3687	-213.112	44.8668	-115.706	-222.143	35.1234	-49.8712	-231.588	34.8603	-65.131	-241.726	37.8244	-87.0833	-191.145	51.0625	-19.7841	-187.753	48.9567	14.959	-157.833	49.6867	-9.16407	
1	0.00833333	-131.72	24.3887	-4.12496	-111.862	19.7378	-24.5268	-97.6669	14.7402	-47.3948	-79.6334	9.90004	-65.2439	-155.43	41.6297	-78.6109	-148.776	40.0655	-105.334	-144.383	39.6429	-131.477	-178.187	46.1371	-82.9978	-178.65	45.4246	-105.721	-181.631	41.7962	-139.529	-204.651	41.7345	-69.0193	-205.64	41.9781	-91.7299	-215.139	43.1181	-121.499	-220.316	32.0355	-47.5073	-235.796	33.5826	-70.1963	-245.829	35.8229	-85.6516	-194.856	47.9798	-16.4931	-189.101	48.9826	11.5088	-159.324	47.7024	-11.8459	
2	0.0166667	-133.293	21.3347	-2.32417	-115.496	16.5369	-22.1217	-94.8733	12.3136	-49.5019	-83.7693	7.02276	-61.5986	-151.774	37.8013	-81.7605	-150.531	36.6113	-103.133	-141.963	36.2899	-126.878	-182.009	43.9461	-79.5252	-180.616	42.3687	-106.877	-179.849	39.0847	-137.801	-200.805	38.5693	-67.73	-208.338	39.0093	-96.0514	-217.24	39.2671	-120.328	-223.603	30.6815	-47.9777	-236.585	29.9507	-68.0126	-245.712	30.3507	-86.7556	-197.105	46.3179	-16.7848	-190.072	45.0511	11.0601	-161.971	44.8559	-8.8734	
3	0.025	-131.252	21.1064	-6.58324	-116.775	15.3188	-24.8574	-97.6831	10.8291	-47.2875	-83.9147	5.48884	-59.4802	-155.553	36.6021	-80.8576	-146.912	35.2914	-105.591	-148.337	35.1159	-125.84	-180.643	41.7683	-77.8505	-181.986	40.8542	-108.455	-183.513	37.8213	-137.823	-201.768	37.4419	-69.9118	-209.761	37.7036	-94.069	-214.761	37.7093	-115.469	-219.957	27.8813	-47.7857	-233.243	29.6078	-68.3755	-247.03	31.2034	-85.401	-196.88	43.9487	-19.6215	-194.935	44.1847	11.1129	-161.931	44.115	-11.6261	
4	0.0333333	-136.843	18.9941	-2.72399	-116.622	14.5934	-26.418	-96.7253	9.71365	-45.6308	-82.4011	4.86886	-60.2442	-154.402	35.6296	-77.278	-150.35	34.3417	-100.573	-145.027	34.4559	-124.804	-180.02	41.7815	-83.4571	-180.963	38.7533	-110.699	-182.382	36.9924	-136.256	-207.958	35.2991	-68.3021	-210.445	36.963	-95.4266	-219.464	36.2999	-119.313	-227.502	26.8649	-48.2812	-233.451	27.5514	-67.2945	-249.174	29.9662	-85.1923	-198.883	44.3978	-18.6184	-190.996	43.7035	8.85077	-164.19	42.1044	-11.527	
5	0.0416667	-138.686	19.5218	-6.78741	-119.801	14.9241	-25.5546	-101.059	10.4626	-49.7472	-84.3588	4.95347	-61.9501	-155.995	34.987	-76.2556	-155.204	33.8866	-105.061	-148.093	33.5957	-125.115	-186.542	40.5822	-82.4784	-183.964	39.0664	-108.014	-188.092	36.0977	-137.469	-210.871	34.8757	-68.5254	-215.967	35.8993	-94.7527	-222.885	35.4822	-116.128	-227.273	27.5115	-48.7242	-235.31	27.0963	-65.7805	-251.225	27.0737	-85.3387	-197.362	43.2159	-15.9897	-195.513	42.162	11.1058	-163.124	41.6232	-10.7761	
6	0.05	-138.397	20.9153	-6.42141	-119.596	16.385	-26.5101	-105.589	10.1526	-46.7168	-91.4016	6.41017	-64.2817	-161.524	37.6989	-81.5482	-154.08	35.2511	-101.054	-152.774	36.0868	-126.034	-188.948	42.3049	-83.1349	-185.113	40.6651	-106.094	-187.431	38.3994	-139.854	-206.995	35.8777	-67.8042	-214.977	36.457	-93.1042	-220.275	37.347	-121.626	-230.442	27.725	-49.7938	-239.698	28.0188	-72.2056	-250.531	28.2583	-89.8121	-198.422	41.6413	-16.3523	-199.104	42.2269	12.7316	-168.222	44.0334	-8.60215	
7	0.0583333	-139.111	24.0906	-2.02926	-121.978	20.1651	-25.3972	-105.441	17.9541	-53.6007	-93.9986	12.6148	-69.4402	-159.88	43.7315	-80.4434	-153.362	41.7362	-106.773	-154.488	42.3339	-127.582	-185.325	46.3485	-83.9559	-184.059	44.8164	-108.331	-181.475	40.3695	-144.208	-204.314	39.5383	-71.2642	-213.365	39.0606	-96.105	-216.734	38.1266	-120.972	-227.163	31.9168	-55.9973	-231.782	30.6783	-74.0959	-241.568	29.7222	-99.5791	-203.846	44.697	-17.0815	-200.281	44.4557	9.2479	-165.812	48.5176	-10.1508	
8	0.0666667	-139.2	24.8775	-6.2006	-125.061	22.7108	-31.6389	-115.786	19.9394	-57.7053	-105.206	17.0452	-80.6328	-157.673	42.8616	-80.1492	-154.164	41.6731	-109.586	-150.119	40.8574	-134.47	-180.184	44.0776	-83.9365	-181.32	41.295	-114.776	-177.379	36.8414	-144.041	-200.431	37.1142	-77.0115	-204.504	35.7782	-100.146	-203.218	34.2277	-128.247	-220.137	28.2653	-57.3639	-221.169	28.0437	-79.0512	-227.5	27.7816	-104.414	-199.369	43.9169	-23.2281	-199.882	43.8609	8.11469	-166.119	47.0785	-11.659	
9	0.075	-140.968	21.3051	-3.83093	-122.611	20.3376	-31.7211	-114.309	17.9641	-57.886	-112.707	12.6251	-79.0786	-154.001	34.7734	-82.5093	-155.151	33.0471	-105.151	-154.274	33.6826	-131.574	-173.68	35.6848	-88.68	-171.309	32.498	-113.829	-169.955	28.7546	-143.268	-190.972	29.94	-80.8568	-197.495	27.8544	-101.09	-195.112	25.291	-128.625	-209.603	21.6875	-59.6478	-213.024	21.2172	-85.0205	-213.592	21.3629	-106.557	-199.527	40.1148	-26.1649	-198.704	42.9694	0.160674	-163.186	44.4046	-13.1243	
10	0.0833333	-139.049	20.6224	-5.89662	-125.689	18.5882	-31.1882	-118.463	15.8944	-60.3803	-112.649	12.2631	-82.6996	-155.937	28.1571	-84.1291	-153.247	26.6126	-107.004	-157.523	27.8197	-133.685	-173.37	29.7813	-91.8387	-170.997	26.1449	-113.578	-173.024	25.1369	-143.486	-194.882	23.8162	-80.8478	-193.827	22.7505	-102.67	-190.99	22.3641	-130.855	-206.97	17.3385	-61.9208	-208.315	17.1609	-85.5812	-208.696	17.5086	-106.742	-197.745	37.5359	-28.5595	-196.961	40.7692	-3.71208	-164.017	42.8218	-16.4766	
11	0.0916667	-143.59	18.8188	-4.34807	-124.818	19.3216	-31.2034	-118.7	18.0331	-60.6287	-117.971	14.1257	-81.6349	-156.166	30.3856	-85.4129	-156.333	29.6947	-110.147	-160.329	31.4464	-130.579	-175.127	32.6013	-89.537	-176.027	31.1837	-116.189	-175.128	32.9109	-147.454	-194.7	26.8619	-79.7273	-192.031	26.1783	-102.773	-195.069	27.3776	-128.096	-205.804	21.1264	-67.8443	-207.747	19.0351	-84.1571	-211.838	22.5624	-109.121	-197.911	41.2858	-31.834	-199.616	44.311	-3.00129	-161.368	41.759	-19.26	
12	0.1	-146.108	24.3414	-9.84321	-133.144	22.2937	-33.703	-120.797	22.0881	-62.6457	-115.868	20.6144	-83.3822	-157.721	37.5607	-87.4738	-156.777	38.1672	-110.514	-161.491	40.6427	-130.855	-175.73	40.2001	-92.3259	-178.528	40.1454	-118.426	-179.624	43.1926	-144.246	-198.333	35.2698	-82.2945	-193.507	35.5909	-106.891	-197.166	37.3783	-130.744	-212.822	27.6565	-65.5169	-212.346	27.2968	-85.0684	-212.611	32.6975	-110.62	-194.875	44.8056	-33.9747	-197.821	48.5955	-1.50736	-164.671	45.9978	-17.7983	
13	0.108333	-145.223	27.088	-8.87458	-130.559	28.1387	-37.6761	-123.285	28.7418	-66.829	-118.645	25.7662	-87.8631	-162.701	43.8371	-85.2052	-161.239	45.4568	-108.918	-165.144	49.6447	-136.1	-179.542	48.7769	-95.3727	-179.151	48.3041	-119.65	-179.922	51.347	-145.718	-197.382	43.229	-85.8188	-198.083	43.098	-104.953	-198.931	45.7064	-130.689	-210.578	37.4454	-70.2514	-214.483	37.1915	-92.0917	-213.677	41.4124	-111.673	-196.771	51.5628	-35.191	-198.075	56.6763	-5.35627	-165.028	54.2027	-17.6189	
14	0.116667	-146.854	29.2584	-11.5015	-134.66	27.7977	-36.6731	-126.758	27.754	-67.0167	-125.58	25.9356	-88.8917	-167.248	46.4821	-89.6119	-167.452	47.6501	-112.069	-169.83	51.1363	-137.328	-182.162	50.5245	-93.4449	-182.772	50.6367	-119.59	-186.969	55.3936	-152.129	-201.042	46.0762	-85.9953	-202.642	46.9459	-108.309	-202.853	48.4873	-131.222	-218.948	41.8032	-71.6193	-219.956	41.7993	-88.1594	-220.475	47.5206	-114.347	-203.295	56.2317	-33.0944	-199.69	56.7604	-6.82981	-168.931	55.0965	-21.9189	
15	0.125	-154.08	22.4972	-13.7067	-143.796	21.5196	-41.4315	-136.636	21.9331	-73.2339	-133.147	16.085	-90.1993	-172.044	39.8442	-90.0698	-171.653	40.8593	-115.023	-180.129	45.7955	-141.112	-192.442	46.1292	-93.3643	-190.274	45.818	-123.527	-193.407	48.9025	-149.873	-209.738	43.0768	-84.619	-209.318	42.4856	-107.275	-213.222	45.2162	-132.912	-226.979	39.8275	-69.9646	-225.361	39.4282	-89.2017	-225.461	43.7296	-112.928	-206.322	51.8656	-36.7441	-204.309	55.0288	-6.82785	-171.75	51.1656	-26.3116	
16	0.133333	-159.957	11.7756	-13.1549	-150.379	9.03702	-45.1932	-146.696	5.6651	-71.5406	-143.383	2.2532	-95.0896	-180.773	25.0866	-89.1682	-185.116	24.4367	-117.766	-188.245	27.3078	-139.919	-201.889	31.9575	-92.8186	-203.507	31.0895	-121.715	-205.034	31.7797	-150.136	-214.659	29.7149	-86.2777	-220.119	30.9403	-109.615	-222.606	32.2745	-136.874	-232.779	29.1807	-69.9457	-234.195	28.8431	-87.9238	-235.451	30.2283	-110.583	-211.953	43.7585	-33.2617	-207.497	48.7682	-9.97615	-179.049	40.5223	-28.5674	
17	0.141667	-161.856	-0.339717	-13.244	-155.411	-8.00535	-37.9287	-151.143	-14.1116	-67.262	-146.849	-20.4316	-89.5352	-182.35	2.75319	-88.161	-190.068	-1.00551	-115.683	-193.148	-1.56792	-137.469	-205.601	9.26058	-96.5405	-206.216	3.90149	-119.379	-212.197	2.14076	-152.294	-222.308	10.0732	-84.9811	-225.324	7.37365	-104.918	-224.347	2.63118	-132.827	-235.361	10.3703	-64.5819	-239.822	8.42066	-88.1519	-241.245	7.0533	-106.155	-213.6	28.8422	-36.8466	-212.656	36.8186	-11.0849	-183.508	26.5919	-27.3309	
18	0.15	-159.175	-8.61896	-8.66039	-153.291	-18.5624	-30.345	-146.718	-29.1941	-63.0655	-146.156	-37.2608	-79.8989	-180.563	-19.3333	-80.9407	-183.401	-26.6085	-106.932	-190.945	-30.9544	-129.837	-200.954	-14.8899	-88.3461	-205.634	-25.0369	-116.093	-207.179	-31.726	-139.629	-218.723	-14.6439	-77.6336	-223.033	-21.7938	-101.366	-222.688	-29.0368	-128.081	-233.844	-13.5855	-59.7907	-233.761	-19.6922	-82.6292	-235.07	-22.8268	-100.403	-212.385	11.1446	-32.9358	-213.074	25.2518	-8.16493	-184.025	12.0087	-23.2922	
19	0.158333	-154.993	-6.47681	-0.713977	-140.169	-16.356	-23.9947	-133.839	-28.481	-50.3656	-126.054	-38.5639	-68.1292	-170.433	-31.4364	-76.7403	-168.161	-41.2675	-94.6773	-172.182	-51.9223	-118.895	-188.17	-34.465	-83.609	-183.078	-46.9499	-104.121	-185.534	-59.1782	-129.358	-206.659	-37.8305	-73.6869	-204.025	-46.6419	-89.9255	-202.451	-57.7339	-116.869	-222.583	-35.9393	-51.9154	-221.406	-44.7126	-71.5653	-220.78	-52.831	-92.4995	-209.02	-2.79881	-32.8654	-211.22	11.7023	-4.06288	-175.706	8.43459	-19.7746	
20	0.166667	-153.16	9.94536	5.97006	-133.612	2.64547	-20.7058	-120.554	-8.23005	-45.6633	-108.586	-17.573	-61.5609	-152.354	-26.3887	-64.1811	-147.159	-42.5964	-87.2958	-144.508	-55.1827	-108.676	-169.476	-39.8421	-70.9996	-157.096	-51.5477	-92.0182	-151.581	-68.6904	-117.737	-183.21	-47.7401	-60.927	-177.118	-60.6099	-83.291	-168.759	-70.5157	-101.907	-198.24	-50.8767	-43.0347	-193.35	-61.3084	-61.199	-187.33	-68.2382	-80.7284	-200.691	-14.3291	-25.4653	-209.517	0.973434	-4.66069	-179.077	8.86361	-19.906	
